<svg width="73" height="33" viewBox="0 0 73 33" fill="none" xmlns="http://www.w3.org/2000/svg">
<path d="M55.582 32.342C54.7765 32.4248 54.0557 32.3062 53.439 31.9862C51.6815 31.0789 50.9261 28.6601 51.3153 25.1796C51.6988 21.7387 53.1538 17.654 55.4085 13.6747C57.2817 10.3693 59.5133 7.47232 61.8625 5.30008C64.15 3.18432 66.4163 1.91561 68.2451 1.72549C69.0487 1.64267 69.7695 1.76126 70.3881 2.08126C72.1456 2.98855 72.9011 5.40738 72.5118 8.88785C72.1283 12.3307 70.6733 16.4135 68.4186 20.3928C66.5435 23.6982 64.3119 26.5951 61.9646 28.7674C59.6771 30.8831 57.4108 32.1518 55.582 32.342ZM68.274 1.99655C64.5682 2.38055 59.3784 7.23514 55.6552 13.8046C51.0571 21.9175 50.1224 29.9664 53.5739 31.7471C54.1405 32.0408 54.8073 32.15 55.5531 32.0728C59.2609 31.6888 64.4487 26.8323 68.1719 20.2648C70.4093 16.3194 71.8508 12.2686 72.2323 8.8615C72.6081 5.49585 71.9067 3.17302 70.2551 2.32032C69.6885 2.02855 69.0218 1.91749 68.276 1.99655" fill="#231F20"/>
<path d="M30.3079 29.2472C30.0574 29.586 29.6392 29.8062 29.167 29.8062C28.3943 29.8062 27.7757 29.2283 27.7757 28.5112C27.7757 27.9653 28.1322 27.5041 28.6371 27.3083C28.5735 27.1088 28.5272 26.9055 28.5003 26.7041C27.6986 26.9996 27.1262 27.7356 27.1262 28.5996C27.1262 29.7253 28.0975 30.6363 29.2904 30.6363C30.1248 30.6363 30.8514 30.1902 31.2098 29.5352C30.8976 29.4787 30.5893 29.3827 30.3079 29.2509" fill="#6D6E71"/>
<path d="M16.4518 2.57056V7.04114H11.2659V22.452H5.97592V7.04114H0.770752V2.57056H16.4518Z" fill="#ED1C24"/>
<path d="M21.0711 16.1594C21.1675 16.7542 21.3371 17.2361 21.5761 17.6088C21.8169 17.9834 22.0848 18.2751 22.3816 18.4878C22.6784 18.7006 22.9809 18.8436 23.2893 18.9208C23.5995 18.998 23.8713 19.0337 24.1044 19.0337C24.3935 19.0337 24.6633 18.9961 24.91 18.9208C25.1586 18.8455 25.3706 18.7646 25.5498 18.6798C25.8119 18.5443 26.0084 18.4126 26.1376 18.2864C26.2686 18.1603 26.4093 18.0022 26.5615 17.8158L31.6414 18.1208C31.5721 18.2733 31.4834 18.4653 31.3736 18.693C31.2637 18.9227 31.123 19.1636 30.9496 19.4177C30.7781 19.6737 30.5584 19.9391 30.2886 20.2196C30.0207 20.5001 29.7008 20.7655 29.3289 21.0215C28.8471 21.3434 28.3383 21.5975 27.8007 21.7838C27.263 21.9702 26.7446 22.1151 26.2416 22.2168C25.7386 22.3184 25.2781 22.3824 24.8579 22.4088C24.4378 22.4333 24.1102 22.4464 23.877 22.4464C23.1467 22.4464 22.4278 22.3824 21.7187 22.2563C21.0095 22.1283 20.3176 21.8968 19.6431 21.5561C19.119 21.302 18.6333 20.9744 18.1882 20.5773C17.7411 20.1782 17.3576 19.7208 17.0415 19.2031C16.7255 18.6855 16.4769 18.1001 16.2977 17.4469C16.1184 16.7937 16.0298 16.069 16.0298 15.2709C16.0298 14.3711 16.1396 13.5787 16.3593 12.8916C16.579 12.2046 16.8334 11.6417 17.1244 11.1994C17.5927 10.469 18.1284 9.90243 18.7355 9.49396C19.3406 9.08737 19.9611 8.78996 20.5951 8.60361C21.2272 8.41726 21.8343 8.30243 22.4124 8.26102C22.9906 8.21773 23.4858 8.19702 23.9002 8.19702C24.4494 8.19702 25.016 8.22714 25.5941 8.28737C26.1722 8.34761 26.7407 8.46996 27.2977 8.65632C27.8546 8.84267 28.3884 9.10055 28.8972 9.43185C29.406 9.76314 29.8743 10.1923 30.3021 10.7175C30.6875 11.1918 30.9862 11.6718 31.2001 12.1556C31.4121 12.6394 31.5721 13.1194 31.6742 13.5937C31.7783 14.0681 31.8438 14.5217 31.8708 14.9547C31.8977 15.3876 31.9189 15.7904 31.9324 16.1631H21.0711V16.1594ZM26.8121 13.8177C26.7292 13.5636 26.6425 13.3302 26.5538 13.1194C26.4652 12.9067 26.2879 12.6657 26.0277 12.3947C25.6982 12.0558 25.3455 11.8431 24.9736 11.7584C24.6016 11.6737 24.2856 11.6304 24.0235 11.6304C23.4993 11.6304 23.0734 11.7151 22.7439 11.8846C22.4144 12.054 22.1446 12.2573 21.9384 12.4944C21.7321 12.7335 21.5761 12.9744 21.4739 13.2191C21.3699 13.4657 21.2908 13.6653 21.2369 13.8177H26.8121Z" fill="#ED1C24"/>
<path d="M39.5887 2.58569H34.241V22.452H39.5887V2.58569Z" fill="#ED1C24"/>
<path d="M48.3244 9.79321H42.9478V22.4407H48.3244V9.79321Z" fill="#ED1C24"/>
<path d="M57.0255 11.3686C57.3338 11.1145 57.6518 10.8736 57.9756 10.6496C58.2993 10.4256 58.6539 10.2298 59.0413 10.0623C59.4286 9.89475 59.8545 9.76299 60.319 9.66699C60.7834 9.57099 61.3037 9.52393 61.8819 9.52393C62.6411 9.52393 63.2887 9.59169 63.8244 9.72722C64.3582 9.86275 64.8593 10.0905 65.3218 10.4086C65.7573 10.6947 66.1003 11.0185 66.3451 11.378C66.5918 11.7376 66.7748 12.1366 66.8943 12.5752C67.0138 13.0138 67.089 13.5013 67.1159 14.0359C67.1448 14.5705 67.1583 15.1484 67.1583 15.7715V22.45H62.1555V16.658C62.1555 16.242 62.1459 15.9126 62.1227 15.6642C62.1016 15.4157 62.0707 15.2049 62.0283 15.0298C61.9435 14.6628 61.8144 14.3597 61.639 14.1206C61.4637 13.8816 61.2633 13.6896 61.0378 13.5465C60.8123 13.4016 60.5772 13.298 60.3305 13.2359C60.0839 13.1719 59.8487 13.1399 59.6233 13.1399C59.313 13.1399 59.0182 13.1832 58.7368 13.2717C58.4554 13.3583 58.1953 13.5145 57.9563 13.7385C57.5054 14.1545 57.2394 14.6289 57.1546 15.1635C57.0698 15.698 57.0274 16.2439 57.0274 16.803V22.4519H52.0034V9.76487H57.0274V11.3686H57.0255Z" fill="#ED1C24"/>
<path d="M48.6946 5.51839C48.6946 7.15227 47.3379 8.47744 45.6652 8.47744C43.9924 8.47744 42.6357 7.15227 42.6357 5.51839C42.6357 3.8845 43.9924 2.55933 45.6652 2.55933C47.3379 2.55933 48.6946 3.8845 48.6946 5.51839Z" fill="#ED1C24"/>
<path d="M53.3349 26.4557C53.3349 27.4608 52.4985 28.2778 51.4695 28.2778C50.4404 28.2778 49.604 27.4627 49.604 26.4557C49.604 25.4486 50.4384 24.6335 51.4695 24.6335C52.5005 24.6335 53.3349 25.4486 53.3349 26.4557Z" fill="#231F20"/>
<path d="M72.267 2.51035C72.267 3.51741 71.4307 4.33247 70.4016 4.33247C69.3725 4.33247 68.5361 3.51553 68.5361 2.51035C68.5361 1.50517 69.3706 0.688232 70.4016 0.688232C71.4326 0.688232 72.267 1.50329 72.267 2.51035Z" fill="#6D6E71"/>
<path d="M0.942266 29.2302C0.942266 29.2302 0.942266 29.249 0.942266 29.2603C0.942266 29.2735 0.938412 29.2867 0.93263 29.2999C0.926849 29.313 0.919141 29.3243 0.907578 29.3338C0.896015 29.3432 0.878671 29.3469 0.857473 29.3469C0.83242 29.3469 0.813149 29.3394 0.795805 29.3225C0.784242 29.313 0.776533 29.298 0.774606 29.2792C0.772679 29.2603 0.770752 29.2378 0.770752 29.2076V28.0161C0.770752 27.9992 0.770752 27.9841 0.770752 27.9672C0.770752 27.9502 0.774606 27.9352 0.780388 27.9201C0.786169 27.9069 0.795805 27.8956 0.807367 27.8862C0.81893 27.8768 0.836274 27.873 0.8594 27.873C0.880598 27.873 0.897942 27.8768 0.909505 27.8862C0.921068 27.8938 0.930703 27.905 0.936485 27.9201C0.942266 27.9352 0.944193 27.9502 0.94612 27.9672C0.94612 27.9841 0.94612 28.001 0.94612 28.018V28.4453C0.94612 28.4453 0.961537 28.4265 0.978881 28.4058C0.996226 28.3869 1.02128 28.3662 1.05211 28.3455C1.08295 28.3229 1.12149 28.306 1.16389 28.289C1.20821 28.274 1.25831 28.2646 1.31806 28.2646C1.40863 28.2646 1.48379 28.2815 1.54353 28.3173C1.60327 28.3512 1.65145 28.3963 1.68614 28.4472C1.72275 28.4999 1.7478 28.5563 1.76129 28.6203C1.77478 28.6825 1.78249 28.7408 1.78249 28.7954C1.78249 28.8462 1.77671 28.9027 1.76322 28.9648C1.74973 29.0269 1.72661 29.0872 1.68999 29.1436C1.6553 29.2001 1.60712 29.2472 1.54546 29.2867C1.48379 29.3243 1.4067 29.345 1.31227 29.345C1.25639 29.345 1.20821 29.3375 1.16581 29.3243C1.12534 29.3112 1.08873 29.2942 1.05982 29.2773C1.02899 29.2585 1.00586 29.2396 0.98659 29.2189C0.967319 29.1982 0.949975 29.1813 0.938412 29.1662V29.2283L0.942266 29.2302ZM1.39129 29.1907C1.42983 29.1775 1.46452 29.153 1.49535 29.121C1.52619 29.089 1.55316 29.0458 1.57436 28.993C1.59556 28.9403 1.6052 28.8763 1.6052 28.7992C1.6052 28.7446 1.59749 28.6919 1.584 28.6429C1.57051 28.594 1.54931 28.5526 1.5204 28.5168C1.49342 28.481 1.45874 28.4528 1.42019 28.4321C1.38165 28.4114 1.33733 28.402 1.28722 28.402C1.26024 28.402 1.22748 28.4076 1.18894 28.417C1.1504 28.4283 1.11378 28.4472 1.07716 28.4773C1.04055 28.5074 1.00972 28.5488 0.984663 28.6034C0.957683 28.6561 0.94612 28.7276 0.94612 28.8142C0.94612 28.8895 0.955756 28.9498 0.976954 29.0006C0.998153 29.0495 1.02321 29.0909 1.05597 29.121C1.0868 29.1512 1.12342 29.1738 1.16389 29.1869C1.20436 29.2001 1.2429 29.2076 1.28337 29.2076C1.31806 29.2076 1.35274 29.2001 1.39321 29.1869" fill="#231F20"/>
<path d="M1.88836 28.4321C1.88065 28.4133 1.8768 28.3983 1.87102 28.387C1.86716 28.3738 1.86523 28.3625 1.86523 28.3512C1.86523 28.3324 1.87294 28.3154 1.89029 28.2966C1.9057 28.2797 1.9269 28.2703 1.95388 28.2703C1.98472 28.2703 2.00399 28.2797 2.01748 28.3004C2.03097 28.3192 2.0406 28.3437 2.05217 28.3738L2.34123 29.1437L2.63994 28.3851C2.64765 28.3644 2.65536 28.3456 2.66306 28.3305C2.67077 28.3154 2.67655 28.3041 2.68426 28.2966C2.69197 28.2872 2.69775 28.2816 2.70546 28.2778C2.71317 28.274 2.72473 28.2721 2.73822 28.2721C2.7652 28.2721 2.78447 28.2816 2.79796 28.2985C2.81145 28.3173 2.81723 28.3305 2.81723 28.3456C2.81723 28.3569 2.81723 28.3681 2.81145 28.3794C2.8076 28.3926 2.80182 28.4096 2.79218 28.4303L2.36821 29.49C2.34894 29.5352 2.32967 29.5729 2.31233 29.6067C2.29306 29.6406 2.27186 29.6651 2.24873 29.6858C2.22561 29.7065 2.19863 29.7216 2.16779 29.731C2.13696 29.7404 2.10034 29.7441 2.05987 29.7441C2.04253 29.7441 2.02326 29.7441 2.00399 29.7404C1.98472 29.7404 1.96544 29.7347 1.95003 29.7291C1.93268 29.7216 1.91919 29.714 1.90763 29.7009C1.89607 29.6896 1.89029 29.6745 1.89029 29.6538C1.89029 29.6387 1.89607 29.6218 1.90763 29.6086C1.91919 29.5936 1.93654 29.586 1.95966 29.586C1.96352 29.586 1.9693 29.586 1.97893 29.586C1.98664 29.586 1.99628 29.586 2.00591 29.5879C2.01555 29.5879 2.02519 29.5879 2.03289 29.5898C2.04253 29.5898 2.04831 29.5898 2.05024 29.5898C2.09456 29.5898 2.1254 29.5766 2.14467 29.5521C2.16394 29.5277 2.18128 29.4976 2.1967 29.4637L2.25066 29.3263L1.89029 28.434L1.88836 28.4321Z" fill="#231F20"/>
<path d="M29.1669 27.2124C28.9781 27.2124 28.8008 27.2482 28.637 27.3103C28.8586 27.9729 29.298 28.5959 29.9127 29.0232C30.0361 29.1079 30.1671 29.1813 30.3078 29.2491C30.4639 29.042 30.5564 28.786 30.5564 28.5112C30.5564 27.7922 29.9339 27.2124 29.1688 27.2124" fill="#EE3124"/>
<path d="M32.3544 27.9184C32.8632 27.5362 34.1524 26.7099 33.952 26.3729C33.7921 26.1019 33.0887 26.4294 32.2908 26.8511C31.6684 27.1842 31.8033 26.7833 32.2003 26.1922C32.551 25.6765 33.0752 24.9762 32.7823 24.7899C32.4412 24.5696 31.3966 25.7875 31.15 26.0266C30.9052 26.2675 30.6798 26.3974 30.805 25.7311C30.9688 24.8407 30.9997 24.3758 30.7992 24.3174C30.5121 24.2384 30.3329 24.5885 29.9051 25.5673C29.5986 26.2656 29.3327 26.3899 29.298 25.7593C29.2556 24.6299 28.9608 24.8878 28.8471 25.0647C28.5387 25.5409 28.4327 26.1226 28.5002 26.7024C28.7469 26.612 29.0128 26.5593 29.2903 26.5593C30.4832 26.5593 31.4506 27.4741 31.4506 28.5979C31.4506 28.9329 31.3639 29.2529 31.2078 29.5315C31.8881 29.6539 32.6088 29.5955 33.1484 29.3339C33.2371 29.2887 33.4567 29.1569 33.3218 28.9725C33.0482 28.6111 32.5568 28.8031 32.0365 28.6525C31.5759 28.5245 31.9863 28.1932 32.3544 27.9165" fill="#EE3124"/>
<path d="M4.96604 27.4514C4.96604 27.3724 4.89474 27.3027 4.81187 27.3027H3.39929C3.31449 27.3027 3.24512 27.3724 3.24512 27.4514C3.24512 27.5305 3.31449 27.5945 3.39929 27.5945H3.94081V29.1889C3.94081 29.2736 4.01404 29.3432 4.10269 29.3432C4.19712 29.3432 4.26842 29.2754 4.26842 29.1889V27.5945H4.80994C4.89666 27.5945 4.96411 27.5305 4.96411 27.4514" fill="#231F20"/>
<path d="M5.43836 27.7791C5.00861 27.7791 4.66943 28.1273 4.66943 28.5696V28.5734C4.66943 29.0252 5.01439 29.364 5.46919 29.364C5.70815 29.364 5.89316 29.2925 6.06853 29.1362C6.09936 29.108 6.11863 29.0741 6.11863 29.0346C6.11863 28.9593 6.05118 28.8953 5.97217 28.8953C5.93748 28.8953 5.90472 28.9103 5.87389 28.9292C5.75248 29.0383 5.62529 29.0873 5.46919 29.0873C5.22445 29.0873 5.0433 28.9367 4.99705 28.6976H6.02998C6.11285 28.6976 6.18223 28.6299 6.18223 28.5489C6.18223 28.1687 5.92785 27.7791 5.43643 27.7791M5.43258 28.0501C5.69659 28.0501 5.82378 28.2459 5.85462 28.4454H4.99705C5.04137 28.2101 5.21481 28.0501 5.43258 28.0501Z" fill="#231F20"/>
<path d="M6.54813 27.2087C6.46141 27.2087 6.38818 27.2784 6.38818 27.3631V29.1909C6.38818 29.2793 6.46141 29.3452 6.55199 29.3452C6.64256 29.3452 6.71194 29.2812 6.71194 29.1909V27.3631C6.71194 27.2784 6.63871 27.2087 6.54813 27.2087Z" fill="#231F20"/>
<path d="M7.82602 28.4849L8.2866 28.0576C8.31551 28.0275 8.34056 27.9955 8.34056 27.9428C8.34056 27.86 8.27697 27.796 8.19025 27.796C8.144 27.796 8.10545 27.8148 8.06884 27.8524L7.33846 28.5564V27.3593C7.33846 27.2746 7.26523 27.2068 7.17851 27.2068C7.09179 27.2068 7.01855 27.2746 7.01855 27.3593V29.187C7.01855 29.2755 7.08986 29.3414 7.18236 29.3414C7.27486 29.3414 7.34038 29.2774 7.34038 29.187V28.9348L7.60247 28.6901L8.08811 29.2774C8.12472 29.3226 8.16519 29.3414 8.21915 29.3414C8.30973 29.3414 8.37525 29.2811 8.37525 29.1964C8.37525 29.1607 8.36562 29.1305 8.33671 29.0985L7.82795 28.4849H7.82602Z" fill="#231F20"/>
<path d="M9.23288 27.779C8.76459 27.779 8.39844 28.1291 8.39844 28.5733V28.579C8.39844 29.0195 8.76074 29.3639 9.22517 29.3639C9.68961 29.3639 10.0654 29.0176 10.0654 28.5733V28.5658C10.0654 28.1253 9.70117 27.7771 9.23288 27.7771M8.72605 28.5658C8.72605 28.274 8.93996 28.0576 9.22517 28.0576C9.51039 28.0576 9.73586 28.2835 9.73586 28.5715V28.5771C9.73586 28.8651 9.52002 29.0797 9.23288 29.0797C8.94574 29.0797 8.72605 28.8557 8.72605 28.5715V28.5639V28.5658Z" fill="#231F20"/>
<path d="M12.0233 27.7791C11.8074 27.7791 11.634 27.8619 11.501 28.0256C11.3912 27.8675 11.2216 27.7791 11.0134 27.7791C10.8053 27.7791 10.6704 27.8638 10.576 27.9616V27.9503C10.576 27.8638 10.5047 27.7979 10.4141 27.7979C10.3235 27.7979 10.2542 27.8638 10.2542 27.9503V29.1908C10.2542 29.2793 10.3255 29.3452 10.416 29.3452C10.5066 29.3452 10.576 29.2812 10.576 29.1908V28.4699C10.576 28.2346 10.7321 28.0671 10.946 28.0671C11.1599 28.0671 11.2813 28.2026 11.2813 28.4435V29.1908C11.2813 29.2793 11.3526 29.3452 11.4393 29.3452C11.5338 29.3452 11.6031 29.2812 11.6031 29.1908V28.4642C11.6031 28.2252 11.7477 28.0671 11.9654 28.0671C12.1832 28.0671 12.3065 28.2026 12.3065 28.4511V29.1908C12.3065 29.2793 12.3778 29.3452 12.4703 29.3452C12.5628 29.3452 12.6303 29.2812 12.6303 29.1908V28.4021C12.6303 28.0181 12.3952 27.7791 12.0213 27.7791" fill="#231F20"/>
<path d="M13.7905 27.3103C13.7095 27.3103 13.6401 27.3762 13.6401 27.4515V29.2077C13.6401 29.2868 13.7095 29.3545 13.7905 29.3545C13.8752 29.3545 13.9427 29.2887 13.9427 29.2077V27.4515C13.9427 27.3724 13.8752 27.3103 13.7905 27.3103Z" fill="#231F20"/>
<path d="M15.1008 27.8035C14.9004 27.8035 14.7366 27.875 14.6152 28.0181V27.9616C14.6152 27.8844 14.5516 27.8204 14.4668 27.8204C14.382 27.8204 14.3203 27.8844 14.3203 27.9616V29.2133C14.3203 29.2924 14.3839 29.3564 14.4706 29.3564C14.5573 29.3564 14.6171 29.2943 14.6171 29.2133V28.4849C14.6171 28.2345 14.7886 28.0651 15.0353 28.0651C15.2819 28.0651 15.4246 28.2101 15.4246 28.4661V29.2115C15.4246 29.2905 15.4862 29.3545 15.5729 29.3545C15.65 29.3545 15.7156 29.2905 15.7156 29.2115V28.4133C15.7156 28.0444 15.4747 27.8035 15.1008 27.8035Z" fill="#231F20"/>
<path d="M17.3728 27.2256C17.29 27.2256 17.2283 27.2858 17.2283 27.3668V28.0482C17.0818 27.8882 16.8988 27.8054 16.681 27.8054C16.3148 27.8054 15.9275 28.0802 15.9275 28.5884V28.5941C15.9275 29.1004 16.3148 29.3715 16.681 29.3715C16.8988 29.3715 17.0799 29.2886 17.2283 29.1174V29.2152C17.2283 29.2943 17.2919 29.3583 17.3767 29.3583C17.4576 29.3583 17.5193 29.2943 17.5193 29.2152V27.3686C17.5193 27.2934 17.4557 27.2275 17.3728 27.2275M17.236 28.5846V28.5903C17.236 28.9178 16.9701 29.1192 16.7215 29.1192C16.4382 29.1192 16.2204 28.8915 16.2204 28.5903V28.5846C16.2204 28.2759 16.4285 28.0614 16.7215 28.0614C16.9758 28.0614 17.236 28.259 17.236 28.5846Z" fill="#231F20"/>
<path d="M18.5774 27.8035C18.113 27.8035 17.7488 28.1461 17.7488 28.5865V28.5922C17.7488 29.0308 18.1111 29.3733 18.5697 29.3733C19.0284 29.3733 19.3965 29.0289 19.3965 28.5865V28.5809C19.3965 28.1442 19.0361 27.8035 18.5774 27.8035ZM18.0494 28.5809C18.0494 28.2835 18.2749 28.0576 18.5697 28.0576C18.8646 28.0576 19.0997 28.2891 19.0997 28.5865V28.5922C19.0997 28.8896 18.8761 29.1155 18.5774 29.1155C18.2787 29.1155 18.0494 28.8858 18.0494 28.5865V28.5809Z" fill="#231F20"/>
<path d="M20.4023 27.8035C20.198 27.8035 20.0342 27.875 19.9147 28.0181V27.9616C19.9147 27.8844 19.8492 27.8204 19.7644 27.8204C19.6873 27.8204 19.6218 27.8844 19.6218 27.9616V29.2133C19.6218 29.2924 19.6873 29.3564 19.7683 29.3564C19.8492 29.3564 19.9147 29.2943 19.9147 29.2133V28.4849C19.9147 28.2345 20.0901 28.0651 20.3349 28.0651C20.5796 28.0651 20.7222 28.2101 20.7222 28.4661V29.2115C20.7222 29.2905 20.7877 29.3545 20.8706 29.3545C20.9535 29.3545 21.0151 29.2905 21.0151 29.2115V28.4133C21.0151 28.0444 20.7762 27.8035 20.4023 27.8035Z" fill="#231F20"/>
<path d="M21.9787 27.8035C21.5509 27.8035 21.2156 28.1461 21.2156 28.5865V28.5922C21.2156 29.0383 21.5548 29.3733 22.0057 29.3733C22.2466 29.3733 22.4297 29.3018 22.605 29.1475C22.6339 29.123 22.6513 29.091 22.6513 29.0533C22.6513 28.9856 22.5896 28.9272 22.5145 28.9272C22.4856 28.9272 22.4566 28.9366 22.4297 28.963C22.3044 29.0722 22.1714 29.123 22.0134 29.123C21.7571 29.123 21.5586 28.9517 21.522 28.6976H22.5781C22.6571 28.6976 22.7187 28.6411 22.7187 28.5658C22.7187 28.1875 22.4644 27.8035 21.9806 27.8035M21.522 28.4755C21.5586 28.2232 21.7417 28.0482 21.9768 28.0482C22.2601 28.0482 22.3911 28.2609 22.422 28.4755H21.522Z" fill="#231F20"/>
<path d="M23.5301 28.4547H23.5262C23.3412 28.4001 23.1659 28.3493 23.1659 28.2364V28.2326C23.1659 28.1272 23.268 28.0557 23.426 28.0557C23.5436 28.0557 23.6785 28.0933 23.8037 28.163C23.8172 28.1705 23.8404 28.1761 23.8712 28.1761C23.9464 28.1761 24.0042 28.1234 24.0042 28.0557C24.0042 28.0067 23.9753 27.9653 23.9329 27.939C23.7748 27.8561 23.5937 27.8091 23.4318 27.8091C23.1061 27.8091 22.8787 27.9936 22.8787 28.2533V28.259C22.8787 28.5564 23.1832 28.6392 23.4068 28.6957C23.6053 28.7503 23.7614 28.8011 23.7614 28.9197V28.9272C23.7614 29.0401 23.6477 29.123 23.4819 29.123C23.3258 29.123 23.1717 29.0721 23.0194 28.9743C23.0021 28.9592 22.9732 28.9517 22.9442 28.9517C22.871 28.9517 22.8113 29.0063 22.8113 29.0778C22.8113 29.123 22.8363 29.1606 22.8652 29.1813C23.0387 29.298 23.2642 29.3658 23.4684 29.3658C23.8115 29.3658 24.0446 29.1813 24.0446 28.9027V28.8971C24.0446 28.5978 23.7382 28.5112 23.532 28.4528" fill="#231F20"/>
<path d="M24.4436 27.8206C24.3626 27.8206 24.2971 27.8846 24.2971 27.9617V29.2135C24.2971 29.2926 24.3626 29.3566 24.4455 29.3566C24.5284 29.3566 24.592 29.2963 24.592 29.2135V27.9617C24.592 27.8846 24.5264 27.8206 24.4436 27.8206Z" fill="#231F20"/>
<path d="M26.0507 27.9861C25.9332 27.8712 25.7597 27.8167 25.5381 27.8167C25.3531 27.8167 25.1951 27.8487 25.0274 27.9164C24.9869 27.9315 24.9445 27.9748 24.9445 28.0369C24.9445 28.1028 25.0043 28.1592 25.0775 28.1592C25.0968 28.1592 25.1141 28.1574 25.1315 28.1498C25.2567 28.0971 25.382 28.0745 25.5111 28.0745C25.7038 28.0745 25.9312 28.1367 25.9312 28.4322V28.4397C25.8214 28.4134 25.6865 28.3889 25.4996 28.3889C25.0775 28.3889 24.8154 28.5809 24.8154 28.8877V28.8934C24.8154 29.2077 25.1161 29.3715 25.4186 29.3715C25.6614 29.3715 25.8252 29.2792 25.9312 29.1776V29.2209C25.9312 29.2981 25.991 29.3564 26.0738 29.3564C26.1567 29.3564 26.2164 29.2962 26.2164 29.219V28.4284C26.2164 28.2345 26.1606 28.0858 26.0507 27.9842M25.9332 28.6618V28.7785C25.9332 28.9837 25.7308 29.1362 25.4572 29.1362C25.2914 29.1362 25.1103 29.059 25.1103 28.8839V28.8783C25.1103 28.7089 25.2664 28.611 25.5208 28.611C25.6595 28.611 25.7925 28.6298 25.9332 28.6637" fill="#231F20"/>
</svg>
